<svg width="52" height="65" viewBox="0 0 52 65" fill="none" xmlns="http://www.w3.org/2000/svg">
<path d="M52 0H39V4.33333H13V0H0V65H13V60.6667H39V65H52V0ZM8.66667 4.33333V8.66667H4.33333V4.33333H8.66667ZM47.6667 4.33333V8.66667H43.3333V4.33333H47.6667ZM39 8.66667V30.3333H13V8.66667H39ZM8.66667 13V17.3333H4.33333V13H8.66667ZM47.6667 13V17.3333H43.3333V13H47.6667ZM8.66667 21.6667V26H4.33333V21.6667H8.66667ZM47.6667 21.6667V26H43.3333V21.6667H47.6667ZM8.66667 30.3333V34.6667H4.33333V30.3333H8.66667ZM47.6667 30.3333V34.6667H43.3333V30.3333H47.6667ZM39 34.6667V56.3333H13V34.6667H39ZM8.66667 39V43.3333H4.33333V39H8.66667ZM47.6667 39V43.3333H43.3333V39H47.6667ZM8.66667 47.6667V52H4.33333V47.6667H8.66667ZM47.6667 47.6667V52H43.3333V47.6667H47.6667ZM8.66667 56.3333V60.6667H4.33333V56.3333H8.66667ZM47.6667 56.3333V60.6667H43.3333V56.3333H47.6667Z" fill="#516282"/>
</svg>
