<svg width="139" height="138" viewBox="0 0 139 138" fill="none" xmlns="http://www.w3.org/2000/svg">
<circle cx="68.9362" cy="69.4469" r="26.7401" stroke="#516282" stroke-width="2.17946"/>
<circle cx="68.9362" cy="69.4469" r="26.7401" stroke="#516282" stroke-width="2.17946"/>
<circle cx="68.9362" cy="69.4469" r="26.7401" stroke="#516282" stroke-width="2.17946"/>
<circle cx="68.9362" cy="62.6809" r="8.35708" stroke="#516282" stroke-width="2.17946"/>
<circle cx="68.9362" cy="62.6809" r="8.35708" stroke="#516282" stroke-width="2.17946"/>
<circle cx="68.9362" cy="62.6809" r="8.35708" stroke="#516282" stroke-width="2.17946"/>
<circle cx="68.9362" cy="13.0213" r="11.9315" stroke="#516282" stroke-width="2.17946"/>
<circle cx="68.9362" cy="13.0213" r="11.9315" stroke="#516282" stroke-width="2.17946"/>
<circle cx="68.9362" cy="13.0213" r="11.9315" stroke="#516282" stroke-width="2.17946"/>
<circle cx="125.106" cy="13.0213" r="11.9315" stroke="#516282" stroke-width="2.17946"/>
<circle cx="125.106" cy="13.0213" r="11.9315" stroke="#516282" stroke-width="2.17946"/>
<circle cx="125.106" cy="13.0213" r="11.9315" stroke="#516282" stroke-width="2.17946"/>
<circle cx="125.106" cy="124.979" r="11.9315" stroke="#516282" stroke-width="2.17946"/>
<circle cx="125.106" cy="124.979" r="11.9315" stroke="#516282" stroke-width="2.17946"/>
<circle cx="125.106" cy="124.979" r="11.9315" stroke="#516282" stroke-width="2.17946"/>
<circle cx="13.0213" cy="69.4468" r="11.9315" stroke="#516282" stroke-width="2.17946"/>
<circle cx="13.0213" cy="69.4468" r="11.9315" stroke="#516282" stroke-width="2.17946"/>
<circle cx="13.0213" cy="69.4468" r="11.9315" stroke="#516282" stroke-width="2.17946"/>
<circle cx="68.9362" cy="13.0213" r="4.39963" fill="#516282"/>
<circle cx="68.9362" cy="13.0213" r="4.39963" fill="#516282"/>
<circle cx="68.9362" cy="13.0213" r="4.39963" fill="#516282"/>
<circle cx="68.9362" cy="13.0213" r="4.39963" fill="#516282"/>
<circle cx="68.9362" cy="13.0213" r="4.39963" stroke="#516282" stroke-width="2.17946"/>
<circle cx="68.9362" cy="13.0213" r="4.39963" stroke="#516282" stroke-width="2.17946"/>
<circle cx="68.9362" cy="13.0213" r="4.39963" stroke="#516282" stroke-width="2.17946"/>
<circle cx="13.0213" cy="69.7021" r="4.39963" fill="#516282"/>
<circle cx="13.0213" cy="69.7021" r="4.39963" fill="#516282"/>
<circle cx="13.0213" cy="69.7021" r="4.39963" fill="#516282"/>
<circle cx="13.0213" cy="69.7021" r="4.39963" fill="#516282"/>
<circle cx="13.0213" cy="69.7021" r="4.39963" stroke="#516282" stroke-width="2.17946"/>
<circle cx="13.0213" cy="69.7021" r="4.39963" stroke="#516282" stroke-width="2.17946"/>
<circle cx="13.0213" cy="69.7021" r="4.39963" stroke="#516282" stroke-width="2.17946"/>
<circle cx="125.106" cy="124.979" r="4.39963" fill="#516282"/>
<circle cx="125.106" cy="124.979" r="4.39963" fill="#516282"/>
<circle cx="125.106" cy="124.979" r="4.39963" fill="#516282"/>
<circle cx="125.106" cy="124.979" r="4.39963" fill="#516282"/>
<circle cx="125.106" cy="124.979" r="4.39963" stroke="#516282" stroke-width="2.17946"/>
<circle cx="125.106" cy="124.979" r="4.39963" stroke="#516282" stroke-width="2.17946"/>
<circle cx="125.106" cy="124.979" r="4.39963" stroke="#516282" stroke-width="2.17946"/>
<circle cx="125.106" cy="13.0213" r="4.39963" fill="#516282"/>
<circle cx="125.106" cy="13.0213" r="4.39963" fill="#516282"/>
<circle cx="125.106" cy="13.0213" r="4.39963" fill="#516282"/>
<circle cx="125.106" cy="13.0213" r="4.39963" fill="#516282"/>
<circle cx="125.106" cy="13.0213" r="4.39963" stroke="#516282" stroke-width="2.17946"/>
<circle cx="125.106" cy="13.0213" r="4.39963" stroke="#516282" stroke-width="2.17946"/>
<circle cx="125.106" cy="13.0213" r="4.39963" stroke="#516282" stroke-width="2.17946"/>
<path fill-rule="evenodd" clip-rule="evenodd" d="M85.1306 88.9567C85.1366 88.7733 85.1397 88.5891 85.1397 88.4043C85.1397 79.2791 77.7422 71.8816 68.617 71.8816C59.4918 71.8816 52.0944 79.2791 52.0944 88.4043C52.0944 89.0639 52.133 89.7144 52.2082 90.3538C51.4051 89.7225 50.6268 89.0943 49.9152 88.5086C49.915 88.4739 49.9149 88.4391 49.9149 88.4043C49.9149 78.0754 58.2881 69.7021 68.617 69.7021C78.7253 69.7021 86.9605 77.7215 87.3077 87.7451L85.1306 88.9567Z" fill="#516282"/>
<path fill-rule="evenodd" clip-rule="evenodd" d="M85.1306 88.9567C85.1366 88.7733 85.1397 88.5891 85.1397 88.4043C85.1397 79.2791 77.7422 71.8816 68.617 71.8816C59.4918 71.8816 52.0944 79.2791 52.0944 88.4043C52.0944 89.0639 52.133 89.7144 52.2082 90.3538C51.4051 89.7225 50.6268 89.0943 49.9152 88.5086C49.915 88.4739 49.9149 88.4391 49.9149 88.4043C49.9149 78.0754 58.2881 69.7021 68.617 69.7021C78.7253 69.7021 86.9605 77.7215 87.3077 87.7451L85.1306 88.9567Z" fill="#516282"/>
<path fill-rule="evenodd" clip-rule="evenodd" d="M85.1306 88.9567C85.1366 88.7733 85.1397 88.5891 85.1397 88.4043C85.1397 79.2791 77.7422 71.8816 68.617 71.8816C59.4918 71.8816 52.0944 79.2791 52.0944 88.4043C52.0944 89.0639 52.133 89.7144 52.2082 90.3538C51.4051 89.7225 50.6268 89.0943 49.9152 88.5086C49.915 88.4739 49.9149 88.4391 49.9149 88.4043C49.9149 78.0754 58.2881 69.7021 68.617 69.7021C78.7253 69.7021 86.9605 77.7215 87.3077 87.7451L85.1306 88.9567Z" fill="#516282"/>
<circle cx="68.9362" cy="69.4468" r="34.0167" stroke="#516282" stroke-width="2.17946"/>
<circle cx="68.9362" cy="69.4468" r="34.0167" stroke="#516282" stroke-width="2.17946"/>
<circle cx="68.9362" cy="69.4468" r="34.0167" stroke="#516282" stroke-width="2.17946"/>
<path d="M68.9362 24.6382V35.234" stroke="#516282" stroke-width="2.52359"/>
<path d="M93.8298 94.7234L116.681 117.574" stroke="#516282" stroke-width="2.52359"/>
<path d="M92.6808 45.3192L116.809 21.1915" stroke="#516282" stroke-width="2.52359"/>
<path d="M25.2766 69.4468H35.1064" stroke="#516282" stroke-width="2.52359"/>
</svg>
