<svg width="70" height="102" viewBox="0 0 70 102" fill="none" xmlns="http://www.w3.org/2000/svg">
<path d="M45.6286 51.6427C44.775 49.5409 43.3391 47.7404 41.5 46.4585V5.98589L68.2581 56.0235L49.1884 85.2H20.8116L1.74194 56.0235L28.5 5.98589V46.4585C26.6609 47.7404 25.225 49.5409 24.3714 51.6427C23.4069 54.018 23.238 56.6497 23.89 59.1315C24.542 61.6136 25.9802 63.8125 27.9879 65.3839C29.9961 66.9557 32.4608 67.8105 35 67.8105C37.5392 67.8105 40.0039 66.9557 42.0121 65.3839C44.0198 63.8125 45.458 61.6136 46.11 59.1315C46.762 56.6497 46.5931 54.018 45.6286 51.6427ZM53.5 93.3V100.5H16.5V93.3H53.5Z" stroke="#516282" stroke-width="3"/>
</svg>
